{
	"patcher" : 	{
		"fileversion" : 1,
		"rect" : [ 77.0, 65.0, 888.0, 666.0 ],
		"bgcolor" : [ 0.92549, 0.92549, 0.92549, 1.0 ],
		"bglocked" : 0,
		"defrect" : [ 77.0, 65.0, 888.0, 666.0 ],
		"openrect" : [ 0.0, 0.0, 0.0, 0.0 ],
		"openinpresentation" : 0,
		"default_fontsize" : 12.0,
		"default_fontface" : 0,
		"default_fontname" : "Arial",
		"gridonopen" : 0,
		"gridsize" : [ 15.0, 15.0 ],
		"gridsnaponopen" : 0,
		"toolbarvisible" : 1,
		"boxanimatetime" : 200,
		"imprint" : 0,
		"enablehscroll" : 1,
		"enablevscroll" : 1,
		"devicewidth" : 0.0,
		"boxes" : [ 			{
				"box" : 				{
					"maxclass" : "number",
					"fontsize" : 12.0,
					"numinlets" : 1,
					"numoutlets" : 2,
					"outlettype" : [ "int", "bang" ],
					"patching_rect" : [ 58.0, 152.0, 50.0, 20.0 ],
					"id" : "obj-6",
					"fontname" : "Arial"
				}

			}
, 			{
				"box" : 				{
					"maxclass" : "newobj",
					"text" : "t i i",
					"hidden" : 1,
					"fontsize" : 12.0,
					"numinlets" : 1,
					"numoutlets" : 2,
					"outlettype" : [ "int", "int" ],
					"patching_rect" : [ 7.0, 176.0, 32.5, 20.0 ],
					"id" : "obj-3",
					"fontname" : "Arial"
				}

			}
, 			{
				"box" : 				{
					"maxclass" : "message",
					"text" : "0 0 0 0 0 0 0 0 0 0 0",
					"hidden" : 1,
					"fontsize" : 12.0,
					"numinlets" : 2,
					"numoutlets" : 1,
					"outlettype" : [ "" ],
					"patching_rect" : [ 762.0, 135.0, 117.0, 18.0 ],
					"id" : "obj-133",
					"fontname" : "Arial"
				}

			}
, 			{
				"box" : 				{
					"maxclass" : "comment",
					"text" : "and so on...",
					"fontsize" : 12.0,
					"numinlets" : 1,
					"numoutlets" : 0,
					"patching_rect" : [ 773.5, 262.0, 73.0, 20.0 ],
					"id" : "obj-130",
					"fontname" : "Arial"
				}

			}
, 			{
				"box" : 				{
					"maxclass" : "comment",
					"text" : "3",
					"fontsize" : 12.0,
					"numinlets" : 1,
					"numoutlets" : 0,
					"patching_rect" : [ 749.5, 262.0, 19.0, 20.0 ],
					"id" : "obj-128",
					"fontname" : "Arial"
				}

			}
, 			{
				"box" : 				{
					"maxclass" : "comment",
					"text" : "2",
					"fontsize" : 12.0,
					"numinlets" : 1,
					"numoutlets" : 0,
					"patching_rect" : [ 695.5, 262.0, 19.0, 20.0 ],
					"id" : "obj-126",
					"fontname" : "Arial"
				}

			}
, 			{
				"box" : 				{
					"maxclass" : "comment",
					"text" : "1",
					"fontsize" : 12.0,
					"numinlets" : 1,
					"numoutlets" : 0,
					"patching_rect" : [ 641.5, 262.0, 19.0, 20.0 ],
					"id" : "obj-124",
					"fontname" : "Arial"
				}

			}
, 			{
				"box" : 				{
					"maxclass" : "comment",
					"text" : "0",
					"fontsize" : 12.0,
					"numinlets" : 1,
					"numoutlets" : 0,
					"patching_rect" : [ 587.0, 262.0, 19.0, 20.0 ],
					"id" : "obj-123",
					"fontname" : "Arial"
				}

			}
, 			{
				"box" : 				{
					"maxclass" : "newobj",
					"text" : "route 0 1 2 3",
					"fontsize" : 12.0,
					"numinlets" : 1,
					"numoutlets" : 5,
					"outlettype" : [ "", "", "", "", "" ],
					"patching_rect" : [ 586.0, 233.0, 236.0, 20.0 ],
					"id" : "obj-121",
					"fontname" : "Arial"
				}

			}
, 			{
				"box" : 				{
					"maxclass" : "flonum",
					"fontsize" : 12.0,
					"numinlets" : 1,
					"numoutlets" : 2,
					"outlettype" : [ "float", "bang" ],
					"patching_rect" : [ 751.0, 481.0, 50.0, 20.0 ],
					"id" : "obj-107",
					"fontname" : "Arial"
				}

			}
, 			{
				"box" : 				{
					"maxclass" : "flonum",
					"fontsize" : 12.0,
					"numinlets" : 1,
					"numoutlets" : 2,
					"outlettype" : [ "float", "bang" ],
					"patching_rect" : [ 751.0, 449.0, 50.0, 20.0 ],
					"id" : "obj-108",
					"fontname" : "Arial"
				}

			}
, 			{
				"box" : 				{
					"maxclass" : "flonum",
					"fontsize" : 12.0,
					"numinlets" : 1,
					"numoutlets" : 2,
					"outlettype" : [ "float", "bang" ],
					"patching_rect" : [ 751.0, 609.0, 50.0, 20.0 ],
					"id" : "obj-109",
					"fontname" : "Arial"
				}

			}
, 			{
				"box" : 				{
					"maxclass" : "number",
					"fontsize" : 12.0,
					"numinlets" : 1,
					"numoutlets" : 2,
					"outlettype" : [ "int", "bang" ],
					"patching_rect" : [ 751.0, 577.0, 50.0, 20.0 ],
					"id" : "obj-110",
					"fontname" : "Arial"
				}

			}
, 			{
				"box" : 				{
					"maxclass" : "number",
					"fontsize" : 12.0,
					"numinlets" : 1,
					"numoutlets" : 2,
					"outlettype" : [ "int", "bang" ],
					"patching_rect" : [ 751.0, 545.0, 50.0, 20.0 ],
					"id" : "obj-111",
					"fontname" : "Arial"
				}

			}
, 			{
				"box" : 				{
					"maxclass" : "flonum",
					"fontsize" : 12.0,
					"numinlets" : 1,
					"numoutlets" : 2,
					"outlettype" : [ "float", "bang" ],
					"patching_rect" : [ 751.0, 513.0, 50.0, 20.0 ],
					"id" : "obj-112",
					"fontname" : "Arial"
				}

			}
, 			{
				"box" : 				{
					"maxclass" : "flonum",
					"fontsize" : 12.0,
					"numinlets" : 1,
					"numoutlets" : 2,
					"outlettype" : [ "float", "bang" ],
					"patching_rect" : [ 751.0, 417.0, 50.0, 20.0 ],
					"id" : "obj-113",
					"fontname" : "Arial"
				}

			}
, 			{
				"box" : 				{
					"maxclass" : "flonum",
					"fontsize" : 12.0,
					"numinlets" : 1,
					"numoutlets" : 2,
					"outlettype" : [ "float", "bang" ],
					"patching_rect" : [ 751.0, 385.0, 50.0, 20.0 ],
					"id" : "obj-114",
					"fontname" : "Arial"
				}

			}
, 			{
				"box" : 				{
					"maxclass" : "flonum",
					"fontsize" : 12.0,
					"numinlets" : 1,
					"numoutlets" : 2,
					"outlettype" : [ "float", "bang" ],
					"patching_rect" : [ 751.0, 353.0, 50.0, 20.0 ],
					"id" : "obj-115",
					"fontname" : "Arial"
				}

			}
, 			{
				"box" : 				{
					"maxclass" : "flonum",
					"fontsize" : 12.0,
					"numinlets" : 1,
					"numoutlets" : 2,
					"outlettype" : [ "float", "bang" ],
					"patching_rect" : [ 751.0, 321.0, 50.0, 20.0 ],
					"id" : "obj-116",
					"fontname" : "Arial"
				}

			}
, 			{
				"box" : 				{
					"maxclass" : "number",
					"fontsize" : 12.0,
					"numinlets" : 1,
					"numoutlets" : 2,
					"outlettype" : [ "int", "bang" ],
					"patching_rect" : [ 751.0, 289.0, 50.0, 20.0 ],
					"id" : "obj-117",
					"fontname" : "Arial"
				}

			}
, 			{
				"box" : 				{
					"maxclass" : "newobj",
					"text" : "unpack 0 0. 0. 0. 0. 0. 0. 0. 0 0 0.",
					"hidden" : 1,
					"fontsize" : 12.0,
					"numinlets" : 1,
					"numoutlets" : 11,
					"outlettype" : [ "int", "float", "float", "float", "float", "float", "float", "float", "int", "int", "float" ],
					"patching_rect" : [ 753.0, 232.0, 186.0, 20.0 ],
					"id" : "obj-118",
					"fontname" : "Arial"
				}

			}
, 			{
				"box" : 				{
					"maxclass" : "flonum",
					"fontsize" : 12.0,
					"numinlets" : 1,
					"numoutlets" : 2,
					"outlettype" : [ "float", "bang" ],
					"patching_rect" : [ 696.0, 481.0, 50.0, 20.0 ],
					"id" : "obj-95",
					"fontname" : "Arial"
				}

			}
, 			{
				"box" : 				{
					"maxclass" : "flonum",
					"fontsize" : 12.0,
					"numinlets" : 1,
					"numoutlets" : 2,
					"outlettype" : [ "float", "bang" ],
					"patching_rect" : [ 696.0, 449.0, 50.0, 20.0 ],
					"id" : "obj-96",
					"fontname" : "Arial"
				}

			}
, 			{
				"box" : 				{
					"maxclass" : "flonum",
					"fontsize" : 12.0,
					"numinlets" : 1,
					"numoutlets" : 2,
					"outlettype" : [ "float", "bang" ],
					"patching_rect" : [ 696.0, 609.0, 50.0, 20.0 ],
					"id" : "obj-97",
					"fontname" : "Arial"
				}

			}
, 			{
				"box" : 				{
					"maxclass" : "number",
					"fontsize" : 12.0,
					"numinlets" : 1,
					"numoutlets" : 2,
					"outlettype" : [ "int", "bang" ],
					"patching_rect" : [ 696.0, 577.0, 50.0, 20.0 ],
					"id" : "obj-98",
					"fontname" : "Arial"
				}

			}
, 			{
				"box" : 				{
					"maxclass" : "number",
					"fontsize" : 12.0,
					"numinlets" : 1,
					"numoutlets" : 2,
					"outlettype" : [ "int", "bang" ],
					"patching_rect" : [ 696.0, 545.0, 50.0, 20.0 ],
					"id" : "obj-99",
					"fontname" : "Arial"
				}

			}
, 			{
				"box" : 				{
					"maxclass" : "flonum",
					"fontsize" : 12.0,
					"numinlets" : 1,
					"numoutlets" : 2,
					"outlettype" : [ "float", "bang" ],
					"patching_rect" : [ 696.0, 513.0, 50.0, 20.0 ],
					"id" : "obj-100",
					"fontname" : "Arial"
				}

			}
, 			{
				"box" : 				{
					"maxclass" : "flonum",
					"fontsize" : 12.0,
					"numinlets" : 1,
					"numoutlets" : 2,
					"outlettype" : [ "float", "bang" ],
					"patching_rect" : [ 696.0, 417.0, 50.0, 20.0 ],
					"id" : "obj-101",
					"fontname" : "Arial"
				}

			}
, 			{
				"box" : 				{
					"maxclass" : "flonum",
					"fontsize" : 12.0,
					"numinlets" : 1,
					"numoutlets" : 2,
					"outlettype" : [ "float", "bang" ],
					"patching_rect" : [ 696.0, 385.0, 50.0, 20.0 ],
					"id" : "obj-102",
					"fontname" : "Arial"
				}

			}
, 			{
				"box" : 				{
					"maxclass" : "flonum",
					"fontsize" : 12.0,
					"numinlets" : 1,
					"numoutlets" : 2,
					"outlettype" : [ "float", "bang" ],
					"patching_rect" : [ 696.0, 353.0, 50.0, 20.0 ],
					"id" : "obj-103",
					"fontname" : "Arial"
				}

			}
, 			{
				"box" : 				{
					"maxclass" : "flonum",
					"fontsize" : 12.0,
					"numinlets" : 1,
					"numoutlets" : 2,
					"outlettype" : [ "float", "bang" ],
					"patching_rect" : [ 696.0, 321.0, 50.0, 20.0 ],
					"id" : "obj-104",
					"fontname" : "Arial"
				}

			}
, 			{
				"box" : 				{
					"maxclass" : "number",
					"fontsize" : 12.0,
					"numinlets" : 1,
					"numoutlets" : 2,
					"outlettype" : [ "int", "bang" ],
					"patching_rect" : [ 696.0, 289.0, 50.0, 20.0 ],
					"id" : "obj-105",
					"fontname" : "Arial"
				}

			}
, 			{
				"box" : 				{
					"maxclass" : "newobj",
					"text" : "unpack 0 0. 0. 0. 0. 0. 0. 0. 0 0 0.",
					"hidden" : 1,
					"fontsize" : 12.0,
					"numinlets" : 1,
					"numoutlets" : 11,
					"outlettype" : [ "int", "float", "float", "float", "float", "float", "float", "float", "int", "int", "float" ],
					"patching_rect" : [ 698.0, 208.0, 186.0, 20.0 ],
					"id" : "obj-106",
					"fontname" : "Arial"
				}

			}
, 			{
				"box" : 				{
					"maxclass" : "flonum",
					"fontsize" : 12.0,
					"numinlets" : 1,
					"numoutlets" : 2,
					"outlettype" : [ "float", "bang" ],
					"patching_rect" : [ 641.0, 481.0, 50.0, 20.0 ],
					"id" : "obj-82",
					"fontname" : "Arial"
				}

			}
, 			{
				"box" : 				{
					"maxclass" : "flonum",
					"fontsize" : 12.0,
					"numinlets" : 1,
					"numoutlets" : 2,
					"outlettype" : [ "float", "bang" ],
					"patching_rect" : [ 641.0, 449.0, 50.0, 20.0 ],
					"id" : "obj-83",
					"fontname" : "Arial"
				}

			}
, 			{
				"box" : 				{
					"maxclass" : "flonum",
					"fontsize" : 12.0,
					"numinlets" : 1,
					"numoutlets" : 2,
					"outlettype" : [ "float", "bang" ],
					"patching_rect" : [ 641.0, 609.0, 50.0, 20.0 ],
					"id" : "obj-84",
					"fontname" : "Arial"
				}

			}
, 			{
				"box" : 				{
					"maxclass" : "number",
					"fontsize" : 12.0,
					"numinlets" : 1,
					"numoutlets" : 2,
					"outlettype" : [ "int", "bang" ],
					"patching_rect" : [ 641.0, 577.0, 50.0, 20.0 ],
					"id" : "obj-85",
					"fontname" : "Arial"
				}

			}
, 			{
				"box" : 				{
					"maxclass" : "number",
					"fontsize" : 12.0,
					"numinlets" : 1,
					"numoutlets" : 2,
					"outlettype" : [ "int", "bang" ],
					"patching_rect" : [ 641.0, 545.0, 50.0, 20.0 ],
					"id" : "obj-86",
					"fontname" : "Arial"
				}

			}
, 			{
				"box" : 				{
					"maxclass" : "flonum",
					"fontsize" : 12.0,
					"numinlets" : 1,
					"numoutlets" : 2,
					"outlettype" : [ "float", "bang" ],
					"patching_rect" : [ 641.0, 513.0, 50.0, 20.0 ],
					"id" : "obj-87",
					"fontname" : "Arial"
				}

			}
, 			{
				"box" : 				{
					"maxclass" : "flonum",
					"fontsize" : 12.0,
					"numinlets" : 1,
					"numoutlets" : 2,
					"outlettype" : [ "float", "bang" ],
					"patching_rect" : [ 641.0, 417.0, 50.0, 20.0 ],
					"id" : "obj-88",
					"fontname" : "Arial"
				}

			}
, 			{
				"box" : 				{
					"maxclass" : "flonum",
					"fontsize" : 12.0,
					"numinlets" : 1,
					"numoutlets" : 2,
					"outlettype" : [ "float", "bang" ],
					"patching_rect" : [ 641.0, 385.0, 50.0, 20.0 ],
					"id" : "obj-89",
					"fontname" : "Arial"
				}

			}
, 			{
				"box" : 				{
					"maxclass" : "flonum",
					"fontsize" : 12.0,
					"numinlets" : 1,
					"numoutlets" : 2,
					"outlettype" : [ "float", "bang" ],
					"patching_rect" : [ 641.0, 353.0, 50.0, 20.0 ],
					"id" : "obj-90",
					"fontname" : "Arial"
				}

			}
, 			{
				"box" : 				{
					"maxclass" : "flonum",
					"fontsize" : 12.0,
					"numinlets" : 1,
					"numoutlets" : 2,
					"outlettype" : [ "float", "bang" ],
					"patching_rect" : [ 641.0, 321.0, 50.0, 20.0 ],
					"id" : "obj-91",
					"fontname" : "Arial"
				}

			}
, 			{
				"box" : 				{
					"maxclass" : "number",
					"fontsize" : 12.0,
					"numinlets" : 1,
					"numoutlets" : 2,
					"outlettype" : [ "int", "bang" ],
					"patching_rect" : [ 641.0, 289.0, 50.0, 20.0 ],
					"id" : "obj-92",
					"fontname" : "Arial"
				}

			}
, 			{
				"box" : 				{
					"maxclass" : "newobj",
					"text" : "unpack 0 0. 0. 0. 0. 0. 0. 0. 0 0 0.",
					"hidden" : 1,
					"fontsize" : 12.0,
					"numinlets" : 1,
					"numoutlets" : 11,
					"outlettype" : [ "int", "float", "float", "float", "float", "float", "float", "float", "int", "int", "float" ],
					"patching_rect" : [ 643.0, 184.0, 186.0, 20.0 ],
					"id" : "obj-93",
					"fontname" : "Arial"
				}

			}
, 			{
				"box" : 				{
					"maxclass" : "flonum",
					"fontsize" : 12.0,
					"numinlets" : 1,
					"numoutlets" : 2,
					"outlettype" : [ "float", "bang" ],
					"patching_rect" : [ 586.0, 481.0, 50.0, 20.0 ],
					"id" : "obj-54",
					"fontname" : "Arial"
				}

			}
, 			{
				"box" : 				{
					"maxclass" : "flonum",
					"fontsize" : 12.0,
					"numinlets" : 1,
					"numoutlets" : 2,
					"outlettype" : [ "float", "bang" ],
					"patching_rect" : [ 586.0, 449.0, 50.0, 20.0 ],
					"id" : "obj-53",
					"fontname" : "Arial"
				}

			}
, 			{
				"box" : 				{
					"maxclass" : "comment",
					"text" : "size",
					"fontsize" : 12.0,
					"numinlets" : 1,
					"numoutlets" : 0,
					"patching_rect" : [ 522.0, 609.400024, 65.0, 20.0 ],
					"id" : "obj-52",
					"fontname" : "Arial"
				}

			}
, 			{
				"box" : 				{
					"maxclass" : "comment",
					"text" : "state",
					"fontsize" : 12.0,
					"numinlets" : 1,
					"numoutlets" : 0,
					"patching_rect" : [ 522.0, 577.400024, 65.0, 20.0 ],
					"id" : "obj-51",
					"fontname" : "Arial"
				}

			}
, 			{
				"box" : 				{
					"maxclass" : "comment",
					"text" : "identifier",
					"fontsize" : 12.0,
					"numinlets" : 1,
					"numoutlets" : 0,
					"patching_rect" : [ 522.0, 545.400024, 65.0, 20.0 ],
					"id" : "obj-50",
					"fontname" : "Arial"
				}

			}
, 			{
				"box" : 				{
					"maxclass" : "comment",
					"text" : "velocity y",
					"fontsize" : 12.0,
					"numinlets" : 1,
					"numoutlets" : 0,
					"patching_rect" : [ 522.0, 513.400024, 65.0, 20.0 ],
					"id" : "obj-49",
					"fontname" : "Arial"
				}

			}
, 			{
				"box" : 				{
					"maxclass" : "comment",
					"text" : "velocity x",
					"fontsize" : 12.0,
					"numinlets" : 1,
					"numoutlets" : 0,
					"patching_rect" : [ 522.0, 481.399994, 65.0, 20.0 ],
					"id" : "obj-48",
					"fontname" : "Arial"
				}

			}
, 			{
				"box" : 				{
					"maxclass" : "comment",
					"text" : "y-pos",
					"fontsize" : 12.0,
					"numinlets" : 1,
					"numoutlets" : 0,
					"patching_rect" : [ 522.0, 449.399994, 65.0, 20.0 ],
					"id" : "obj-47",
					"fontname" : "Arial"
				}

			}
, 			{
				"box" : 				{
					"maxclass" : "comment",
					"text" : "x-pos",
					"fontsize" : 12.0,
					"numinlets" : 1,
					"numoutlets" : 0,
					"patching_rect" : [ 522.0, 417.399994, 65.0, 20.0 ],
					"id" : "obj-46",
					"fontname" : "Arial"
				}

			}
, 			{
				"box" : 				{
					"maxclass" : "comment",
					"text" : "minor axis",
					"fontsize" : 12.0,
					"numinlets" : 1,
					"numoutlets" : 0,
					"patching_rect" : [ 522.0, 385.399994, 65.0, 20.0 ],
					"id" : "obj-45",
					"fontname" : "Arial"
				}

			}
, 			{
				"box" : 				{
					"maxclass" : "comment",
					"text" : "major axis ",
					"fontsize" : 12.0,
					"numinlets" : 1,
					"numoutlets" : 0,
					"patching_rect" : [ 522.0, 353.399994, 69.0, 20.0 ],
					"id" : "obj-44",
					"fontname" : "Arial"
				}

			}
, 			{
				"box" : 				{
					"maxclass" : "comment",
					"text" : "angle",
					"fontsize" : 12.0,
					"numinlets" : 1,
					"numoutlets" : 0,
					"patching_rect" : [ 522.0, 321.399994, 53.0, 20.0 ],
					"id" : "obj-43",
					"fontname" : "Arial"
				}

			}
, 			{
				"box" : 				{
					"maxclass" : "comment",
					"text" : "frame #",
					"fontsize" : 12.0,
					"numinlets" : 1,
					"numoutlets" : 0,
					"patching_rect" : [ 522.0, 289.0, 53.0, 20.0 ],
					"id" : "obj-42",
					"fontname" : "Arial"
				}

			}
, 			{
				"box" : 				{
					"maxclass" : "flonum",
					"fontsize" : 12.0,
					"numinlets" : 1,
					"numoutlets" : 2,
					"outlettype" : [ "float", "bang" ],
					"patching_rect" : [ 586.0, 609.0, 50.0, 20.0 ],
					"id" : "obj-38",
					"fontname" : "Arial"
				}

			}
, 			{
				"box" : 				{
					"maxclass" : "number",
					"fontsize" : 12.0,
					"numinlets" : 1,
					"numoutlets" : 2,
					"outlettype" : [ "int", "bang" ],
					"patching_rect" : [ 586.0, 577.0, 50.0, 20.0 ],
					"id" : "obj-37",
					"fontname" : "Arial"
				}

			}
, 			{
				"box" : 				{
					"maxclass" : "number",
					"fontsize" : 12.0,
					"numinlets" : 1,
					"numoutlets" : 2,
					"outlettype" : [ "int", "bang" ],
					"patching_rect" : [ 586.0, 545.0, 50.0, 20.0 ],
					"id" : "obj-36",
					"fontname" : "Arial"
				}

			}
, 			{
				"box" : 				{
					"maxclass" : "flonum",
					"fontsize" : 12.0,
					"numinlets" : 1,
					"numoutlets" : 2,
					"outlettype" : [ "float", "bang" ],
					"patching_rect" : [ 586.0, 513.0, 50.0, 20.0 ],
					"id" : "obj-35",
					"fontname" : "Arial"
				}

			}
, 			{
				"box" : 				{
					"maxclass" : "flonum",
					"fontsize" : 12.0,
					"numinlets" : 1,
					"numoutlets" : 2,
					"outlettype" : [ "float", "bang" ],
					"patching_rect" : [ 586.0, 417.0, 50.0, 20.0 ],
					"id" : "obj-34",
					"fontname" : "Arial"
				}

			}
, 			{
				"box" : 				{
					"maxclass" : "flonum",
					"fontsize" : 12.0,
					"numinlets" : 1,
					"numoutlets" : 2,
					"outlettype" : [ "float", "bang" ],
					"patching_rect" : [ 586.0, 385.0, 50.0, 20.0 ],
					"id" : "obj-33",
					"fontname" : "Arial"
				}

			}
, 			{
				"box" : 				{
					"maxclass" : "flonum",
					"fontsize" : 12.0,
					"numinlets" : 1,
					"numoutlets" : 2,
					"outlettype" : [ "float", "bang" ],
					"patching_rect" : [ 586.0, 353.0, 50.0, 20.0 ],
					"id" : "obj-32",
					"fontname" : "Arial"
				}

			}
, 			{
				"box" : 				{
					"maxclass" : "flonum",
					"fontsize" : 12.0,
					"numinlets" : 1,
					"numoutlets" : 2,
					"outlettype" : [ "float", "bang" ],
					"patching_rect" : [ 586.0, 321.0, 50.0, 20.0 ],
					"id" : "obj-31",
					"fontname" : "Arial"
				}

			}
, 			{
				"box" : 				{
					"maxclass" : "number",
					"fontsize" : 12.0,
					"numinlets" : 1,
					"numoutlets" : 2,
					"outlettype" : [ "int", "bang" ],
					"patching_rect" : [ 586.0, 289.0, 50.0, 20.0 ],
					"id" : "obj-28",
					"fontname" : "Arial"
				}

			}
, 			{
				"box" : 				{
					"maxclass" : "comment",
					"text" : "Left outlet: List of finger data",
					"fontsize" : 10.0,
					"numinlets" : 1,
					"numoutlets" : 0,
					"patching_rect" : [ 182.0, 188.0, 137.0, 18.0 ],
					"id" : "obj-26",
					"fontname" : "Arial"
				}

			}
, 			{
				"box" : 				{
					"maxclass" : "comment",
					"text" : "Right outlet: Bang at start of every new frame received",
					"fontsize" : 10.0,
					"numinlets" : 1,
					"numoutlets" : 0,
					"patching_rect" : [ 182.0, 174.0, 252.0, 18.0 ],
					"id" : "obj-25",
					"fontname" : "Arial"
				}

			}
, 			{
				"box" : 				{
					"maxclass" : "comment",
					"text" : "int 0: off, int > 0 selects multitouch device by index",
					"fontsize" : 10.0,
					"numinlets" : 1,
					"numoutlets" : 0,
					"patching_rect" : [ 182.0, 152.0, 233.0, 18.0 ],
					"id" : "obj-24",
					"fontname" : "Arial"
				}

			}
, 			{
				"box" : 				{
					"maxclass" : "comment",
					"text" : "Outlets:",
					"fontsize" : 10.0,
					"numinlets" : 1,
					"numoutlets" : 0,
					"patching_rect" : [ 139.0, 174.0, 45.0, 18.0 ],
					"id" : "obj-23",
					"fontname" : "Arial"
				}

			}
, 			{
				"box" : 				{
					"maxclass" : "comment",
					"text" : "Inlet:",
					"fontsize" : 10.0,
					"numinlets" : 1,
					"numoutlets" : 0,
					"patching_rect" : [ 139.0, 152.0, 45.0, 18.0 ],
					"id" : "obj-22",
					"fontname" : "Arial"
				}

			}
, 			{
				"box" : 				{
					"maxclass" : "newobj",
					"text" : "unpack 0 0. 0. 0. 0. 0. 0. 0. 0 0 0.",
					"hidden" : 1,
					"fontsize" : 12.0,
					"numinlets" : 1,
					"numoutlets" : 11,
					"outlettype" : [ "int", "float", "float", "float", "float", "float", "float", "float", "int", "int", "float" ],
					"patching_rect" : [ 588.0, 160.0, 186.0, 20.0 ],
					"id" : "obj-16",
					"fontname" : "Arial"
				}

			}
, 			{
				"box" : 				{
					"maxclass" : "comment",
					"text" : "License: GNU GPL 2.0 www.gnu.org",
					"fontsize" : 10.0,
					"numinlets" : 1,
					"numoutlets" : 0,
					"patching_rect" : [ 22.0, 98.0, 324.0, 18.0 ],
					"id" : "obj-8",
					"fontname" : "Arial"
				}

			}
, 			{
				"box" : 				{
					"maxclass" : "comment",
					"text" : "Based on code by: http://www.steike.com/code/multitouch/",
					"fontsize" : 10.0,
					"numinlets" : 1,
					"numoutlets" : 0,
					"patching_rect" : [ 22.0, 85.0, 324.0, 18.0 ],
					"id" : "obj-7",
					"fontname" : "Arial"
				}

			}
, 			{
				"box" : 				{
					"maxclass" : "comment",
					"text" : "2009 by [ a n y m a | research ] Michael & Max Egger",
					"fontsize" : 10.0,
					"numinlets" : 1,
					"numoutlets" : 0,
					"patching_rect" : [ 22.0, 72.0, 324.0, 18.0 ],
					"id" : "obj-71",
					"fontname" : "Arial"
				}

			}
, 			{
				"box" : 				{
					"maxclass" : "comment",
					"text" : "fingerpinger",
					"fontsize" : 24.0,
					"textcolor" : [ 1.0, 1.0, 1.0, 1.0 ],
					"numinlets" : 1,
					"frgb" : [ 1.0, 1.0, 1.0, 1.0 ],
					"numoutlets" : 0,
					"patching_rect" : [ 22.0, 17.0, 203.0, 34.0 ],
					"id" : "obj-72",
					"fontname" : "Arial Bold Italic"
				}

			}
, 			{
				"box" : 				{
					"maxclass" : "comment",
					"text" : "Get multitouch data from the MacBook trackpad / Magic Mouse / Magic Trackpad",
					"fontsize" : 14.0,
					"numinlets" : 1,
					"numoutlets" : 0,
					"patching_rect" : [ 22.0, 50.0, 590.0, 23.0 ],
					"id" : "obj-73",
					"fontname" : "Arial"
				}

			}
, 			{
				"box" : 				{
					"maxclass" : "panel",
					"numinlets" : 1,
					"numoutlets" : 0,
					"patching_rect" : [ 17.0, 13.0, 848.0, 114.0 ],
					"id" : "obj-94",
					"rounded" : 0,
					"bgcolor" : [ 0.501961, 0.717647, 0.764706, 1.0 ]
				}

			}
, 			{
				"box" : 				{
					"maxclass" : "newobj",
					"text" : "p draw",
					"hidden" : 1,
					"fontsize" : 12.0,
					"numinlets" : 3,
					"numoutlets" : 1,
					"outlettype" : [ "" ],
					"patching_rect" : [ 7.0, 240.0, 59.5, 20.0 ],
					"id" : "obj-10",
					"fontname" : "Arial",
					"patcher" : 					{
						"fileversion" : 1,
						"rect" : [ 356.0, 74.0, 1176.0, 707.0 ],
						"bglocked" : 0,
						"defrect" : [ 356.0, 74.0, 1176.0, 707.0 ],
						"openrect" : [ 0.0, 0.0, 0.0, 0.0 ],
						"openinpresentation" : 0,
						"default_fontsize" : 12.0,
						"default_fontface" : 0,
						"default_fontname" : "Arial",
						"gridonopen" : 0,
						"gridsize" : [ 15.0, 15.0 ],
						"gridsnaponopen" : 0,
						"toolbarvisible" : 1,
						"boxanimatetime" : 200,
						"imprint" : 0,
						"enablehscroll" : 1,
						"enablevscroll" : 1,
						"devicewidth" : 0.0,
						"boxes" : [ 							{
								"box" : 								{
									"maxclass" : "newobj",
									"text" : "zl reg",
									"fontsize" : 12.0,
									"numinlets" : 2,
									"numoutlets" : 2,
									"outlettype" : [ "", "" ],
									"patching_rect" : [ 762.0, 538.0, 40.0, 20.0 ],
									"id" : "obj-28",
									"fontname" : "Arial"
								}

							}
, 							{
								"box" : 								{
									"maxclass" : "newobj",
									"text" : "pack 0 0",
									"fontsize" : 12.0,
									"numinlets" : 2,
									"numoutlets" : 1,
									"outlettype" : [ "" ],
									"patching_rect" : [ 749.0, 492.0, 56.0, 20.0 ],
									"id" : "obj-27",
									"fontname" : "Arial"
								}

							}
, 							{
								"box" : 								{
									"maxclass" : "newobj",
									"text" : "t b b b",
									"fontsize" : 12.0,
									"numinlets" : 1,
									"numoutlets" : 3,
									"outlettype" : [ "bang", "bang", "bang" ],
									"patching_rect" : [ 624.0, 502.0, 46.0, 20.0 ],
									"id" : "obj-26",
									"fontname" : "Arial"
								}

							}
, 							{
								"box" : 								{
									"maxclass" : "newobj",
									"text" : "pack moveto 0 0",
									"fontsize" : 12.0,
									"numinlets" : 3,
									"numoutlets" : 1,
									"outlettype" : [ "" ],
									"patching_rect" : [ 714.0, 590.0, 99.0, 20.0 ],
									"id" : "obj-25",
									"fontname" : "Arial"
								}

							}
, 							{
								"box" : 								{
									"maxclass" : "newobj",
									"text" : "loadbang",
									"fontsize" : 12.0,
									"numinlets" : 1,
									"numoutlets" : 1,
									"outlettype" : [ "bang" ],
									"patching_rect" : [ 1040.0, 436.0, 60.0, 20.0 ],
									"id" : "obj-23",
									"fontname" : "Arial"
								}

							}
, 							{
								"box" : 								{
									"maxclass" : "message",
									"text" : "frgb 100 10 255, pensize 1 1",
									"fontsize" : 12.0,
									"numinlets" : 2,
									"numoutlets" : 1,
									"outlettype" : [ "" ],
									"patching_rect" : [ 816.0, 591.0, 163.0, 18.0 ],
									"id" : "obj-22",
									"fontname" : "Arial"
								}

							}
, 							{
								"box" : 								{
									"maxclass" : "newobj",
									"text" : "pack lineto 0 0",
									"fontsize" : 12.0,
									"numinlets" : 3,
									"numoutlets" : 1,
									"outlettype" : [ "" ],
									"patching_rect" : [ 625.0, 590.0, 88.0, 20.0 ],
									"id" : "obj-7",
									"fontname" : "Arial"
								}

							}
, 							{
								"box" : 								{
									"maxclass" : "message",
									"text" : "brgb 20 20 20, clear",
									"fontsize" : 12.0,
									"numinlets" : 2,
									"numoutlets" : 1,
									"outlettype" : [ "" ],
									"patching_rect" : [ 1040.0, 459.0, 117.0, 18.0 ],
									"id" : "obj-3",
									"fontname" : "Arial"
								}

							}
, 							{
								"box" : 								{
									"maxclass" : "newobj",
									"text" : "* -1.",
									"fontsize" : 12.0,
									"numinlets" : 2,
									"numoutlets" : 1,
									"outlettype" : [ "float" ],
									"patching_rect" : [ 199.0, 335.0, 33.0, 20.0 ],
									"id" : "obj-4",
									"fontname" : "Arial"
								}

							}
, 							{
								"box" : 								{
									"maxclass" : "newobj",
									"text" : "* -20.",
									"fontsize" : 12.0,
									"numinlets" : 2,
									"numoutlets" : 1,
									"outlettype" : [ "float" ],
									"patching_rect" : [ 164.0, 375.0, 39.0, 20.0 ],
									"id" : "obj-46",
									"fontname" : "Arial"
								}

							}
, 							{
								"box" : 								{
									"maxclass" : "newobj",
									"text" : "* 20.",
									"fontsize" : 12.0,
									"numinlets" : 2,
									"numoutlets" : 1,
									"outlettype" : [ "float" ],
									"patching_rect" : [ 125.0, 330.0, 35.0, 20.0 ],
									"id" : "obj-45",
									"fontname" : "Arial"
								}

							}
, 							{
								"box" : 								{
									"maxclass" : "newobj",
									"text" : "pack line 0 0",
									"fontsize" : 12.0,
									"numinlets" : 3,
									"numoutlets" : 1,
									"outlettype" : [ "" ],
									"patching_rect" : [ 104.0, 404.0, 78.0, 20.0 ],
									"id" : "obj-42",
									"fontname" : "Arial"
								}

							}
, 							{
								"box" : 								{
									"maxclass" : "newobj",
									"text" : "sin",
									"fontsize" : 12.0,
									"numinlets" : 1,
									"numoutlets" : 1,
									"outlettype" : [ "float" ],
									"patching_rect" : [ 178.0, 276.0, 26.0, 20.0 ],
									"id" : "obj-41",
									"fontname" : "Arial"
								}

							}
, 							{
								"box" : 								{
									"maxclass" : "newobj",
									"text" : "cos",
									"fontsize" : 12.0,
									"numinlets" : 1,
									"numoutlets" : 1,
									"outlettype" : [ "float" ],
									"patching_rect" : [ 128.0, 280.0, 29.0, 20.0 ],
									"id" : "obj-40",
									"fontname" : "Arial"
								}

							}
, 							{
								"box" : 								{
									"maxclass" : "newobj",
									"text" : "t b b b",
									"fontsize" : 12.0,
									"numinlets" : 1,
									"numoutlets" : 3,
									"outlettype" : [ "bang", "bang", "bang" ],
									"patching_rect" : [ 225.0, 269.0, 46.0, 20.0 ],
									"id" : "obj-39",
									"fontname" : "Arial"
								}

							}
, 							{
								"box" : 								{
									"maxclass" : "message",
									"text" : "frgb 0 0 0, pensize 3 3",
									"fontsize" : 12.0,
									"numinlets" : 2,
									"numoutlets" : 1,
									"outlettype" : [ "" ],
									"patching_rect" : [ 341.0, 337.0, 129.0, 18.0 ],
									"id" : "obj-38",
									"fontname" : "Arial"
								}

							}
, 							{
								"box" : 								{
									"maxclass" : "newobj",
									"text" : "pack moveto 0 0",
									"fontsize" : 12.0,
									"numinlets" : 3,
									"numoutlets" : 1,
									"outlettype" : [ "" ],
									"patching_rect" : [ 231.0, 342.0, 99.0, 20.0 ],
									"id" : "obj-36",
									"fontname" : "Arial"
								}

							}
, 							{
								"box" : 								{
									"maxclass" : "newobj",
									"text" : "!- 1.",
									"fontsize" : 12.0,
									"numinlets" : 2,
									"numoutlets" : 1,
									"outlettype" : [ "float" ],
									"patching_rect" : [ 577.0, 161.0, 32.5, 20.0 ],
									"id" : "obj-35",
									"fontname" : "Arial"
								}

							}
, 							{
								"box" : 								{
									"maxclass" : "newobj",
									"text" : "gate",
									"fontsize" : 12.0,
									"numinlets" : 2,
									"numoutlets" : 1,
									"outlettype" : [ "" ],
									"patching_rect" : [ 230.0, 100.0, 34.0, 20.0 ],
									"id" : "obj-30",
									"fontname" : "Arial"
								}

							}
, 							{
								"box" : 								{
									"maxclass" : "newobj",
									"text" : "scale 0. 2. 2 30",
									"fontsize" : 12.0,
									"numinlets" : 6,
									"numoutlets" : 1,
									"outlettype" : [ "" ],
									"patching_rect" : [ 863.0, 165.0, 92.0, 20.0 ],
									"id" : "obj-29",
									"fontname" : "Arial"
								}

							}
, 							{
								"box" : 								{
									"maxclass" : "newobj",
									"text" : "t b b",
									"fontsize" : 12.0,
									"numinlets" : 1,
									"numoutlets" : 2,
									"outlettype" : [ "bang", "bang" ],
									"patching_rect" : [ 229.0, 164.0, 34.0, 20.0 ],
									"id" : "obj-21",
									"fontname" : "Arial"
								}

							}
, 							{
								"box" : 								{
									"maxclass" : "newobj",
									"text" : "pack paintoval 0 0 0 0 0",
									"fontsize" : 12.0,
									"numinlets" : 6,
									"numoutlets" : 1,
									"outlettype" : [ "" ],
									"patching_rect" : [ 491.0, 391.0, 137.0, 20.0 ],
									"id" : "obj-20",
									"fontname" : "Arial"
								}

							}
, 							{
								"box" : 								{
									"maxclass" : "newobj",
									"text" : "- 0.",
									"fontsize" : 12.0,
									"numinlets" : 2,
									"numoutlets" : 1,
									"outlettype" : [ "float" ],
									"patching_rect" : [ 548.0, 344.0, 32.5, 20.0 ],
									"id" : "obj-16",
									"fontname" : "Arial"
								}

							}
, 							{
								"box" : 								{
									"maxclass" : "newobj",
									"text" : "- 0.",
									"fontsize" : 12.0,
									"numinlets" : 2,
									"numoutlets" : 1,
									"outlettype" : [ "float" ],
									"patching_rect" : [ 517.0, 346.0, 32.5, 20.0 ],
									"id" : "obj-15",
									"fontname" : "Arial"
								}

							}
, 							{
								"box" : 								{
									"maxclass" : "newobj",
									"text" : "+ 0.",
									"fontsize" : 12.0,
									"numinlets" : 2,
									"numoutlets" : 1,
									"outlettype" : [ "float" ],
									"patching_rect" : [ 590.0, 345.0, 32.5, 20.0 ],
									"id" : "obj-14",
									"fontname" : "Arial"
								}

							}
, 							{
								"box" : 								{
									"maxclass" : "newobj",
									"text" : "+ 0.",
									"fontsize" : 12.0,
									"numinlets" : 2,
									"numoutlets" : 1,
									"outlettype" : [ "float" ],
									"patching_rect" : [ 634.0, 345.0, 32.5, 20.0 ],
									"id" : "obj-13",
									"fontname" : "Arial"
								}

							}
, 							{
								"box" : 								{
									"maxclass" : "newobj",
									"text" : "* 360.",
									"fontsize" : 12.0,
									"numinlets" : 2,
									"numoutlets" : 1,
									"outlettype" : [ "float" ],
									"patching_rect" : [ 577.0, 186.0, 42.0, 20.0 ],
									"id" : "obj-12",
									"fontname" : "Arial"
								}

							}
, 							{
								"box" : 								{
									"maxclass" : "newobj",
									"text" : "* 480.",
									"fontsize" : 12.0,
									"numinlets" : 2,
									"numoutlets" : 1,
									"outlettype" : [ "float" ],
									"patching_rect" : [ 518.0, 187.0, 42.0, 20.0 ],
									"id" : "obj-11",
									"fontname" : "Arial"
								}

							}
, 							{
								"box" : 								{
									"maxclass" : "message",
									"text" : "clear",
									"fontsize" : 12.0,
									"numinlets" : 2,
									"numoutlets" : 1,
									"outlettype" : [ "" ],
									"patching_rect" : [ 992.0, 264.0, 37.0, 18.0 ],
									"id" : "obj-8",
									"fontname" : "Arial"
								}

							}
, 							{
								"box" : 								{
									"maxclass" : "newobj",
									"text" : "unpack 0. 0. 0. 0. 0. 0. 0. 0. 0. 0. 0. 0. 0.",
									"fontsize" : 12.0,
									"numinlets" : 1,
									"numoutlets" : 13,
									"outlettype" : [ "float", "float", "float", "float", "float", "float", "float", "float", "float", "float", "float", "float", "float" ],
									"patching_rect" : [ 231.0, 128.0, 708.0, 20.0 ],
									"id" : "obj-6",
									"fontname" : "Arial"
								}

							}
, 							{
								"box" : 								{
									"maxclass" : "inlet",
									"numinlets" : 0,
									"numoutlets" : 1,
									"outlettype" : [ "list" ],
									"patching_rect" : [ 998.0, 67.0, 25.0, 25.0 ],
									"id" : "obj-5",
									"comment" : ""
								}

							}
, 							{
								"box" : 								{
									"maxclass" : "inlet",
									"numinlets" : 0,
									"numoutlets" : 1,
									"outlettype" : [ "int" ],
									"patching_rect" : [ 82.0, 49.0, 25.0, 25.0 ],
									"id" : "obj-9",
									"comment" : ""
								}

							}
, 							{
								"box" : 								{
									"maxclass" : "inlet",
									"numinlets" : 0,
									"numoutlets" : 1,
									"outlettype" : [ "list" ],
									"patching_rect" : [ 266.0, 40.0, 25.0, 25.0 ],
									"id" : "obj-10",
									"comment" : ""
								}

							}
, 							{
								"box" : 								{
									"maxclass" : "outlet",
									"numinlets" : 1,
									"numoutlets" : 0,
									"patching_rect" : [ 231.0, 639.5, 25.0, 25.0 ],
									"id" : "obj-18",
									"comment" : ""
								}

							}
 ],
						"lines" : [ 							{
								"patchline" : 								{
									"source" : [ "obj-21", 0 ],
									"destination" : [ "obj-39", 0 ],
									"hidden" : 0,
									"midpoints" : [  ]
								}

							}
, 							{
								"patchline" : 								{
									"source" : [ "obj-38", 0 ],
									"destination" : [ "obj-18", 0 ],
									"hidden" : 0,
									"midpoints" : [ 350.5, 477.0, 240.5, 477.0 ]
								}

							}
, 							{
								"patchline" : 								{
									"source" : [ "obj-20", 0 ],
									"destination" : [ "obj-18", 0 ],
									"hidden" : 0,
									"midpoints" : [ 500.5, 477.0, 240.5, 477.0 ]
								}

							}
, 							{
								"patchline" : 								{
									"source" : [ "obj-36", 0 ],
									"destination" : [ "obj-18", 0 ],
									"hidden" : 0,
									"midpoints" : [ 240.5, 477.0, 240.5, 477.0 ]
								}

							}
, 							{
								"patchline" : 								{
									"source" : [ "obj-8", 0 ],
									"destination" : [ "obj-18", 0 ],
									"hidden" : 0,
									"midpoints" : [ 1001.5, 480.0, 240.5, 480.0 ]
								}

							}
, 							{
								"patchline" : 								{
									"source" : [ "obj-42", 0 ],
									"destination" : [ "obj-18", 0 ],
									"hidden" : 0,
									"midpoints" : [ 113.5, 477.0, 240.5, 477.0 ]
								}

							}
, 							{
								"patchline" : 								{
									"source" : [ "obj-10", 0 ],
									"destination" : [ "obj-30", 1 ],
									"hidden" : 0,
									"midpoints" : [  ]
								}

							}
, 							{
								"patchline" : 								{
									"source" : [ "obj-9", 0 ],
									"destination" : [ "obj-30", 0 ],
									"hidden" : 0,
									"midpoints" : [  ]
								}

							}
, 							{
								"patchline" : 								{
									"source" : [ "obj-5", 0 ],
									"destination" : [ "obj-8", 0 ],
									"hidden" : 0,
									"midpoints" : [  ]
								}

							}
, 							{
								"patchline" : 								{
									"source" : [ "obj-4", 0 ],
									"destination" : [ "obj-46", 1 ],
									"hidden" : 0,
									"midpoints" : [  ]
								}

							}
, 							{
								"patchline" : 								{
									"source" : [ "obj-29", 0 ],
									"destination" : [ "obj-4", 0 ],
									"hidden" : 0,
									"midpoints" : [ 872.5, 246.0, 208.5, 246.0 ]
								}

							}
, 							{
								"patchline" : 								{
									"source" : [ "obj-29", 0 ],
									"destination" : [ "obj-45", 1 ],
									"hidden" : 0,
									"midpoints" : [ 872.5, 306.0, 150.5, 306.0 ]
								}

							}
, 							{
								"patchline" : 								{
									"source" : [ "obj-45", 0 ],
									"destination" : [ "obj-42", 1 ],
									"hidden" : 0,
									"midpoints" : [  ]
								}

							}
, 							{
								"patchline" : 								{
									"source" : [ "obj-40", 0 ],
									"destination" : [ "obj-45", 0 ],
									"hidden" : 0,
									"midpoints" : [  ]
								}

							}
, 							{
								"patchline" : 								{
									"source" : [ "obj-41", 0 ],
									"destination" : [ "obj-46", 0 ],
									"hidden" : 0,
									"midpoints" : [  ]
								}

							}
, 							{
								"patchline" : 								{
									"source" : [ "obj-46", 0 ],
									"destination" : [ "obj-42", 2 ],
									"hidden" : 0,
									"midpoints" : [  ]
								}

							}
, 							{
								"patchline" : 								{
									"source" : [ "obj-6", 2 ],
									"destination" : [ "obj-40", 0 ],
									"hidden" : 0,
									"midpoints" : [ 355.333344, 249.0, 137.5, 249.0 ]
								}

							}
, 							{
								"patchline" : 								{
									"source" : [ "obj-6", 2 ],
									"destination" : [ "obj-41", 0 ],
									"hidden" : 0,
									"midpoints" : [ 355.333344, 249.0, 187.5, 249.0 ]
								}

							}
, 							{
								"patchline" : 								{
									"source" : [ "obj-15", 0 ],
									"destination" : [ "obj-20", 1 ],
									"hidden" : 0,
									"midpoints" : [ 526.5, 387.0, 524.099976, 387.0 ]
								}

							}
, 							{
								"patchline" : 								{
									"source" : [ "obj-16", 0 ],
									"destination" : [ "obj-20", 2 ],
									"hidden" : 0,
									"midpoints" : [ 557.5, 378.0, 547.700012, 378.0 ]
								}

							}
, 							{
								"patchline" : 								{
									"source" : [ "obj-14", 0 ],
									"destination" : [ "obj-20", 3 ],
									"hidden" : 0,
									"midpoints" : [ 599.5, 378.0, 571.299988, 378.0 ]
								}

							}
, 							{
								"patchline" : 								{
									"source" : [ "obj-13", 0 ],
									"destination" : [ "obj-20", 4 ],
									"hidden" : 0,
									"midpoints" : [ 643.5, 378.0, 594.900024, 378.0 ]
								}

							}
, 							{
								"patchline" : 								{
									"source" : [ "obj-6", 9 ],
									"destination" : [ "obj-20", 5 ],
									"hidden" : 0,
									"midpoints" : [ 757.25, 378.0, 618.5, 378.0 ]
								}

							}
, 							{
								"patchline" : 								{
									"source" : [ "obj-30", 0 ],
									"destination" : [ "obj-6", 0 ],
									"hidden" : 0,
									"midpoints" : [  ]
								}

							}
, 							{
								"patchline" : 								{
									"source" : [ "obj-29", 0 ],
									"destination" : [ "obj-15", 1 ],
									"hidden" : 0,
									"midpoints" : [ 872.5, 330.0, 540.0, 330.0 ]
								}

							}
, 							{
								"patchline" : 								{
									"source" : [ "obj-29", 0 ],
									"destination" : [ "obj-16", 1 ],
									"hidden" : 0,
									"midpoints" : [ 872.5, 330.0, 571.0, 330.0 ]
								}

							}
, 							{
								"patchline" : 								{
									"source" : [ "obj-29", 0 ],
									"destination" : [ "obj-14", 1 ],
									"hidden" : 0,
									"midpoints" : [ 872.5, 330.0, 613.0, 330.0 ]
								}

							}
, 							{
								"patchline" : 								{
									"source" : [ "obj-29", 0 ],
									"destination" : [ "obj-13", 1 ],
									"hidden" : 0,
									"midpoints" : [ 872.5, 330.0, 657.0, 330.0 ]
								}

							}
, 							{
								"patchline" : 								{
									"source" : [ "obj-6", 11 ],
									"destination" : [ "obj-29", 0 ],
									"hidden" : 0,
									"midpoints" : [  ]
								}

							}
, 							{
								"patchline" : 								{
									"source" : [ "obj-6", 6 ],
									"destination" : [ "obj-35", 0 ],
									"hidden" : 0,
									"midpoints" : [  ]
								}

							}
, 							{
								"patchline" : 								{
									"source" : [ "obj-6", 0 ],
									"destination" : [ "obj-21", 0 ],
									"hidden" : 0,
									"midpoints" : [  ]
								}

							}
, 							{
								"patchline" : 								{
									"source" : [ "obj-21", 1 ],
									"destination" : [ "obj-20", 0 ],
									"hidden" : 0,
									"midpoints" : [ 253.5, 255.0, 500.5, 255.0 ]
								}

							}
, 							{
								"patchline" : 								{
									"source" : [ "obj-39", 2 ],
									"destination" : [ "obj-38", 0 ],
									"hidden" : 0,
									"midpoints" : [  ]
								}

							}
, 							{
								"patchline" : 								{
									"source" : [ "obj-39", 0 ],
									"destination" : [ "obj-42", 0 ],
									"hidden" : 0,
									"midpoints" : [ 234.5, 315.0, 113.5, 315.0 ]
								}

							}
, 							{
								"patchline" : 								{
									"source" : [ "obj-39", 1 ],
									"destination" : [ "obj-36", 0 ],
									"hidden" : 0,
									"midpoints" : [  ]
								}

							}
, 							{
								"patchline" : 								{
									"source" : [ "obj-3", 0 ],
									"destination" : [ "obj-18", 0 ],
									"hidden" : 0,
									"midpoints" : [ 1049.5, 525.0, 681.0, 525.0, 681.0, 570.0, 240.5, 570.0 ]
								}

							}
, 							{
								"patchline" : 								{
									"source" : [ "obj-11", 0 ],
									"destination" : [ "obj-36", 1 ],
									"hidden" : 0,
									"midpoints" : [ 527.5, 324.0, 280.5, 324.0 ]
								}

							}
, 							{
								"patchline" : 								{
									"source" : [ "obj-6", 5 ],
									"destination" : [ "obj-11", 0 ],
									"hidden" : 0,
									"midpoints" : [  ]
								}

							}
, 							{
								"patchline" : 								{
									"source" : [ "obj-11", 0 ],
									"destination" : [ "obj-15", 0 ],
									"hidden" : 0,
									"midpoints" : [ 527.5, 207.0, 526.5, 207.0 ]
								}

							}
, 							{
								"patchline" : 								{
									"source" : [ "obj-11", 0 ],
									"destination" : [ "obj-14", 0 ],
									"hidden" : 0,
									"midpoints" : [ 527.5, 330.0, 599.5, 330.0 ]
								}

							}
, 							{
								"patchline" : 								{
									"source" : [ "obj-12", 0 ],
									"destination" : [ "obj-36", 2 ],
									"hidden" : 0,
									"midpoints" : [ 586.5, 324.0, 320.5, 324.0 ]
								}

							}
, 							{
								"patchline" : 								{
									"source" : [ "obj-35", 0 ],
									"destination" : [ "obj-12", 0 ],
									"hidden" : 0,
									"midpoints" : [  ]
								}

							}
, 							{
								"patchline" : 								{
									"source" : [ "obj-12", 0 ],
									"destination" : [ "obj-16", 0 ],
									"hidden" : 0,
									"midpoints" : [ 586.5, 330.0, 557.5, 330.0 ]
								}

							}
, 							{
								"patchline" : 								{
									"source" : [ "obj-12", 0 ],
									"destination" : [ "obj-13", 0 ],
									"hidden" : 0,
									"midpoints" : [ 586.5, 330.0, 643.5, 330.0 ]
								}

							}
, 							{
								"patchline" : 								{
									"source" : [ "obj-7", 0 ],
									"destination" : [ "obj-18", 0 ],
									"hidden" : 0,
									"midpoints" : [ 634.5, 624.0, 240.5, 624.0 ]
								}

							}
, 							{
								"patchline" : 								{
									"source" : [ "obj-22", 0 ],
									"destination" : [ "obj-18", 0 ],
									"hidden" : 0,
									"midpoints" : [ 825.5, 624.0, 240.5, 624.0 ]
								}

							}
, 							{
								"patchline" : 								{
									"source" : [ "obj-23", 0 ],
									"destination" : [ "obj-3", 0 ],
									"hidden" : 0,
									"midpoints" : [  ]
								}

							}
, 							{
								"patchline" : 								{
									"source" : [ "obj-25", 0 ],
									"destination" : [ "obj-18", 0 ],
									"hidden" : 0,
									"midpoints" : [ 723.5, 624.0, 240.5, 624.0 ]
								}

							}
, 							{
								"patchline" : 								{
									"source" : [ "obj-12", 0 ],
									"destination" : [ "obj-7", 2 ],
									"hidden" : 0,
									"midpoints" : [ 586.5, 330.0, 703.5, 330.0 ]
								}

							}
, 							{
								"patchline" : 								{
									"source" : [ "obj-11", 0 ],
									"destination" : [ "obj-7", 1 ],
									"hidden" : 0,
									"midpoints" : [ 527.5, 330.0, 681.0, 330.0, 681.0, 576.0, 669.0, 576.0 ]
								}

							}
, 							{
								"patchline" : 								{
									"source" : [ "obj-26", 2 ],
									"destination" : [ "obj-22", 0 ],
									"hidden" : 0,
									"midpoints" : [ 660.5, 576.0, 825.5, 576.0 ]
								}

							}
, 							{
								"patchline" : 								{
									"source" : [ "obj-26", 1 ],
									"destination" : [ "obj-25", 0 ],
									"hidden" : 0,
									"midpoints" : [ 647.0, 576.0, 723.5, 576.0 ]
								}

							}
, 							{
								"patchline" : 								{
									"source" : [ "obj-26", 0 ],
									"destination" : [ "obj-7", 0 ],
									"hidden" : 0,
									"midpoints" : [ 633.5, 522.0, 634.5, 522.0 ]
								}

							}
, 							{
								"patchline" : 								{
									"source" : [ "obj-11", 0 ],
									"destination" : [ "obj-27", 0 ],
									"hidden" : 0,
									"midpoints" : [ 527.5, 330.0, 758.5, 330.0 ]
								}

							}
, 							{
								"patchline" : 								{
									"source" : [ "obj-12", 0 ],
									"destination" : [ "obj-27", 1 ],
									"hidden" : 0,
									"midpoints" : [ 586.5, 330.0, 795.5, 330.0 ]
								}

							}
, 							{
								"patchline" : 								{
									"source" : [ "obj-27", 0 ],
									"destination" : [ "obj-28", 1 ],
									"hidden" : 0,
									"midpoints" : [  ]
								}

							}
, 							{
								"patchline" : 								{
									"source" : [ "obj-26", 0 ],
									"destination" : [ "obj-28", 0 ],
									"hidden" : 0,
									"midpoints" : [  ]
								}

							}
, 							{
								"patchline" : 								{
									"source" : [ "obj-28", 0 ],
									"destination" : [ "obj-25", 1 ],
									"hidden" : 0,
									"midpoints" : [ 771.5, 576.0, 763.5, 576.0 ]
								}

							}
, 							{
								"patchline" : 								{
									"source" : [ "obj-11", 0 ],
									"destination" : [ "obj-26", 0 ],
									"hidden" : 0,
									"midpoints" : [ 527.5, 330.0, 630.0, 330.0, 630.0, 378.0, 639.0, 378.0, 639.0, 489.0, 633.5, 489.0 ]
								}

							}
 ]
					}
,
					"saved_object_attributes" : 					{
						"fontface" : 0,
						"fontsize" : 12.0,
						"default_fontface" : 0,
						"default_fontname" : "Arial",
						"fontname" : "Arial",
						"default_fontsize" : 12.0,
						"globalpatchername" : ""
					}

				}

			}
, 			{
				"box" : 				{
					"maxclass" : "lcd",
					"numinlets" : 1,
					"numoutlets" : 4,
					"outlettype" : [ "list", "list", "int", "" ],
					"patching_rect" : [ 28.0, 271.0, 480.0, 360.0 ],
					"id" : "obj-12"
				}

			}
, 			{
				"box" : 				{
					"maxclass" : "toggle",
					"numinlets" : 1,
					"numoutlets" : 1,
					"outlettype" : [ "int" ],
					"patching_rect" : [ 33.0, 152.0, 20.0, 20.0 ],
					"id" : "obj-5"
				}

			}
, 			{
				"box" : 				{
					"maxclass" : "newobj",
					"text" : "fingerpinger",
					"fontsize" : 14.0,
					"numinlets" : 1,
					"numoutlets" : 2,
					"outlettype" : [ "list", "list" ],
					"patching_rect" : [ 28.0, 199.0, 85.0, 23.0 ],
					"id" : "obj-1",
					"fontname" : "Arial"
				}

			}
 ],
		"lines" : [ 			{
				"patchline" : 				{
					"source" : [ "obj-1", 1 ],
					"destination" : [ "obj-133", 0 ],
					"hidden" : 1,
					"midpoints" : [ 103.5, 223.0, 553.0, 223.0, 553.0, 131.0, 678.0, 131.0, 678.0, 131.0, 759.0, 131.0, 759.0, 131.0, 771.5, 131.0 ]
				}

			}
, 			{
				"patchline" : 				{
					"source" : [ "obj-133", 0 ],
					"destination" : [ "obj-118", 0 ],
					"hidden" : 1,
					"midpoints" : [  ]
				}

			}
, 			{
				"patchline" : 				{
					"source" : [ "obj-133", 0 ],
					"destination" : [ "obj-106", 0 ],
					"hidden" : 1,
					"midpoints" : [  ]
				}

			}
, 			{
				"patchline" : 				{
					"source" : [ "obj-133", 0 ],
					"destination" : [ "obj-93", 0 ],
					"hidden" : 1,
					"midpoints" : [  ]
				}

			}
, 			{
				"patchline" : 				{
					"source" : [ "obj-133", 0 ],
					"destination" : [ "obj-16", 0 ],
					"hidden" : 1,
					"midpoints" : [  ]
				}

			}
, 			{
				"patchline" : 				{
					"source" : [ "obj-10", 0 ],
					"destination" : [ "obj-12", 0 ],
					"hidden" : 1,
					"midpoints" : [ 16.5, 268.0, 37.5, 268.0 ]
				}

			}
, 			{
				"patchline" : 				{
					"source" : [ "obj-1", 0 ],
					"destination" : [ "obj-10", 1 ],
					"hidden" : 1,
					"midpoints" : [  ]
				}

			}
, 			{
				"patchline" : 				{
					"source" : [ "obj-1", 1 ],
					"destination" : [ "obj-10", 2 ],
					"hidden" : 1,
					"midpoints" : [ 103.5, 235.0, 57.0, 235.0 ]
				}

			}
, 			{
				"patchline" : 				{
					"source" : [ "obj-16", 0 ],
					"destination" : [ "obj-28", 0 ],
					"hidden" : 1,
					"midpoints" : [  ]
				}

			}
, 			{
				"patchline" : 				{
					"source" : [ "obj-16", 1 ],
					"destination" : [ "obj-31", 0 ],
					"hidden" : 1,
					"midpoints" : [  ]
				}

			}
, 			{
				"patchline" : 				{
					"source" : [ "obj-16", 2 ],
					"destination" : [ "obj-32", 0 ],
					"hidden" : 1,
					"midpoints" : [  ]
				}

			}
, 			{
				"patchline" : 				{
					"source" : [ "obj-16", 3 ],
					"destination" : [ "obj-33", 0 ],
					"hidden" : 1,
					"midpoints" : [  ]
				}

			}
, 			{
				"patchline" : 				{
					"source" : [ "obj-16", 4 ],
					"destination" : [ "obj-34", 0 ],
					"hidden" : 1,
					"midpoints" : [  ]
				}

			}
, 			{
				"patchline" : 				{
					"source" : [ "obj-16", 5 ],
					"destination" : [ "obj-53", 0 ],
					"hidden" : 1,
					"midpoints" : [  ]
				}

			}
, 			{
				"patchline" : 				{
					"source" : [ "obj-16", 6 ],
					"destination" : [ "obj-54", 0 ],
					"hidden" : 1,
					"midpoints" : [  ]
				}

			}
, 			{
				"patchline" : 				{
					"source" : [ "obj-16", 7 ],
					"destination" : [ "obj-35", 0 ],
					"hidden" : 1,
					"midpoints" : [  ]
				}

			}
, 			{
				"patchline" : 				{
					"source" : [ "obj-16", 8 ],
					"destination" : [ "obj-36", 0 ],
					"hidden" : 1,
					"midpoints" : [  ]
				}

			}
, 			{
				"patchline" : 				{
					"source" : [ "obj-16", 9 ],
					"destination" : [ "obj-37", 0 ],
					"hidden" : 1,
					"midpoints" : [  ]
				}

			}
, 			{
				"patchline" : 				{
					"source" : [ "obj-16", 10 ],
					"destination" : [ "obj-38", 0 ],
					"hidden" : 1,
					"midpoints" : [  ]
				}

			}
, 			{
				"patchline" : 				{
					"source" : [ "obj-93", 10 ],
					"destination" : [ "obj-84", 0 ],
					"hidden" : 1,
					"midpoints" : [  ]
				}

			}
, 			{
				"patchline" : 				{
					"source" : [ "obj-93", 9 ],
					"destination" : [ "obj-85", 0 ],
					"hidden" : 1,
					"midpoints" : [  ]
				}

			}
, 			{
				"patchline" : 				{
					"source" : [ "obj-93", 8 ],
					"destination" : [ "obj-86", 0 ],
					"hidden" : 1,
					"midpoints" : [  ]
				}

			}
, 			{
				"patchline" : 				{
					"source" : [ "obj-93", 7 ],
					"destination" : [ "obj-87", 0 ],
					"hidden" : 1,
					"midpoints" : [  ]
				}

			}
, 			{
				"patchline" : 				{
					"source" : [ "obj-93", 6 ],
					"destination" : [ "obj-82", 0 ],
					"hidden" : 1,
					"midpoints" : [  ]
				}

			}
, 			{
				"patchline" : 				{
					"source" : [ "obj-93", 5 ],
					"destination" : [ "obj-83", 0 ],
					"hidden" : 1,
					"midpoints" : [  ]
				}

			}
, 			{
				"patchline" : 				{
					"source" : [ "obj-93", 4 ],
					"destination" : [ "obj-88", 0 ],
					"hidden" : 1,
					"midpoints" : [  ]
				}

			}
, 			{
				"patchline" : 				{
					"source" : [ "obj-93", 3 ],
					"destination" : [ "obj-89", 0 ],
					"hidden" : 1,
					"midpoints" : [  ]
				}

			}
, 			{
				"patchline" : 				{
					"source" : [ "obj-93", 2 ],
					"destination" : [ "obj-90", 0 ],
					"hidden" : 1,
					"midpoints" : [  ]
				}

			}
, 			{
				"patchline" : 				{
					"source" : [ "obj-93", 1 ],
					"destination" : [ "obj-91", 0 ],
					"hidden" : 1,
					"midpoints" : [  ]
				}

			}
, 			{
				"patchline" : 				{
					"source" : [ "obj-93", 0 ],
					"destination" : [ "obj-92", 0 ],
					"hidden" : 1,
					"midpoints" : [  ]
				}

			}
, 			{
				"patchline" : 				{
					"source" : [ "obj-106", 0 ],
					"destination" : [ "obj-105", 0 ],
					"hidden" : 1,
					"midpoints" : [  ]
				}

			}
, 			{
				"patchline" : 				{
					"source" : [ "obj-106", 1 ],
					"destination" : [ "obj-104", 0 ],
					"hidden" : 1,
					"midpoints" : [  ]
				}

			}
, 			{
				"patchline" : 				{
					"source" : [ "obj-106", 2 ],
					"destination" : [ "obj-103", 0 ],
					"hidden" : 1,
					"midpoints" : [  ]
				}

			}
, 			{
				"patchline" : 				{
					"source" : [ "obj-106", 3 ],
					"destination" : [ "obj-102", 0 ],
					"hidden" : 1,
					"midpoints" : [  ]
				}

			}
, 			{
				"patchline" : 				{
					"source" : [ "obj-106", 4 ],
					"destination" : [ "obj-101", 0 ],
					"hidden" : 1,
					"midpoints" : [  ]
				}

			}
, 			{
				"patchline" : 				{
					"source" : [ "obj-106", 5 ],
					"destination" : [ "obj-96", 0 ],
					"hidden" : 1,
					"midpoints" : [  ]
				}

			}
, 			{
				"patchline" : 				{
					"source" : [ "obj-106", 6 ],
					"destination" : [ "obj-95", 0 ],
					"hidden" : 1,
					"midpoints" : [  ]
				}

			}
, 			{
				"patchline" : 				{
					"source" : [ "obj-106", 7 ],
					"destination" : [ "obj-100", 0 ],
					"hidden" : 1,
					"midpoints" : [  ]
				}

			}
, 			{
				"patchline" : 				{
					"source" : [ "obj-106", 8 ],
					"destination" : [ "obj-99", 0 ],
					"hidden" : 1,
					"midpoints" : [  ]
				}

			}
, 			{
				"patchline" : 				{
					"source" : [ "obj-106", 9 ],
					"destination" : [ "obj-98", 0 ],
					"hidden" : 1,
					"midpoints" : [  ]
				}

			}
, 			{
				"patchline" : 				{
					"source" : [ "obj-106", 10 ],
					"destination" : [ "obj-97", 0 ],
					"hidden" : 1,
					"midpoints" : [  ]
				}

			}
, 			{
				"patchline" : 				{
					"source" : [ "obj-118", 10 ],
					"destination" : [ "obj-109", 0 ],
					"hidden" : 1,
					"midpoints" : [  ]
				}

			}
, 			{
				"patchline" : 				{
					"source" : [ "obj-118", 9 ],
					"destination" : [ "obj-110", 0 ],
					"hidden" : 1,
					"midpoints" : [  ]
				}

			}
, 			{
				"patchline" : 				{
					"source" : [ "obj-118", 8 ],
					"destination" : [ "obj-111", 0 ],
					"hidden" : 1,
					"midpoints" : [  ]
				}

			}
, 			{
				"patchline" : 				{
					"source" : [ "obj-118", 7 ],
					"destination" : [ "obj-112", 0 ],
					"hidden" : 1,
					"midpoints" : [  ]
				}

			}
, 			{
				"patchline" : 				{
					"source" : [ "obj-118", 6 ],
					"destination" : [ "obj-107", 0 ],
					"hidden" : 1,
					"midpoints" : [  ]
				}

			}
, 			{
				"patchline" : 				{
					"source" : [ "obj-118", 5 ],
					"destination" : [ "obj-108", 0 ],
					"hidden" : 1,
					"midpoints" : [  ]
				}

			}
, 			{
				"patchline" : 				{
					"source" : [ "obj-118", 4 ],
					"destination" : [ "obj-113", 0 ],
					"hidden" : 1,
					"midpoints" : [  ]
				}

			}
, 			{
				"patchline" : 				{
					"source" : [ "obj-118", 3 ],
					"destination" : [ "obj-114", 0 ],
					"hidden" : 1,
					"midpoints" : [  ]
				}

			}
, 			{
				"patchline" : 				{
					"source" : [ "obj-118", 2 ],
					"destination" : [ "obj-115", 0 ],
					"hidden" : 1,
					"midpoints" : [  ]
				}

			}
, 			{
				"patchline" : 				{
					"source" : [ "obj-118", 1 ],
					"destination" : [ "obj-116", 0 ],
					"hidden" : 1,
					"midpoints" : [  ]
				}

			}
, 			{
				"patchline" : 				{
					"source" : [ "obj-118", 0 ],
					"destination" : [ "obj-117", 0 ],
					"hidden" : 1,
					"midpoints" : [  ]
				}

			}
, 			{
				"patchline" : 				{
					"source" : [ "obj-121", 0 ],
					"destination" : [ "obj-16", 0 ],
					"hidden" : 1,
					"midpoints" : [  ]
				}

			}
, 			{
				"patchline" : 				{
					"source" : [ "obj-121", 1 ],
					"destination" : [ "obj-93", 0 ],
					"hidden" : 1,
					"midpoints" : [  ]
				}

			}
, 			{
				"patchline" : 				{
					"source" : [ "obj-121", 2 ],
					"destination" : [ "obj-106", 0 ],
					"hidden" : 1,
					"midpoints" : [  ]
				}

			}
, 			{
				"patchline" : 				{
					"source" : [ "obj-121", 3 ],
					"destination" : [ "obj-118", 0 ],
					"hidden" : 1,
					"midpoints" : [  ]
				}

			}
, 			{
				"patchline" : 				{
					"source" : [ "obj-1", 0 ],
					"destination" : [ "obj-121", 0 ],
					"hidden" : 0,
					"midpoints" : [ 37.5, 227.0, 595.5, 227.0 ]
				}

			}
, 			{
				"patchline" : 				{
					"source" : [ "obj-3", 0 ],
					"destination" : [ "obj-10", 0 ],
					"hidden" : 1,
					"midpoints" : [  ]
				}

			}
, 			{
				"patchline" : 				{
					"source" : [ "obj-3", 1 ],
					"destination" : [ "obj-1", 0 ],
					"hidden" : 1,
					"midpoints" : [  ]
				}

			}
, 			{
				"patchline" : 				{
					"source" : [ "obj-6", 0 ],
					"destination" : [ "obj-3", 0 ],
					"hidden" : 1,
					"midpoints" : [  ]
				}

			}
, 			{
				"patchline" : 				{
					"source" : [ "obj-5", 0 ],
					"destination" : [ "obj-3", 0 ],
					"hidden" : 1,
					"midpoints" : [  ]
				}

			}
 ]
	}

}
